<svg width="64" height="64" viewBox="0 0 64 64" fill="none" xmlns="http://www.w3.org/2000/svg">
<path d="M15.148 26.8866C15.6608 26.713 16.2112 26.6225 16.7842 26.6225C19.2875 26.6225 21.3761 28.4035 21.8511 30.7657L25.3949 30.0412C24.5806 26.0263 21.0368 23 16.7842 23C15.8116 23 14.8766 23.1585 14.002 23.4528L15.148 26.8866Z" fill="black"/>
<path d="M10.9632 38.3877L13.361 35.6708C12.2903 34.7199 11.6192 33.3389 11.6192 31.7918C11.6192 30.2522 12.2903 28.8636 13.361 27.9202L10.9632 25.2109C9.14608 26.826 8 29.173 8 31.7993C8 34.4181 9.14608 36.7726 10.9632 38.3877Z" fill="black"/>
<path d="M21.8511 32.833C21.3685 35.1952 19.2875 36.9687 16.7842 36.9687C16.2111 36.9687 15.6607 36.8781 15.1405 36.7045L13.9944 40.1383C14.869 40.4326 15.8115 40.5911 16.7842 40.5911C21.0368 40.5911 24.5806 37.5724 25.3949 33.5575L21.8511 32.833Z" fill="black"/>
<path d="M37.2025 35.2636C36.6145 35.8373 35.8228 36.1843 34.9481 36.1693C34.3449 36.1617 33.787 35.9806 33.3194 35.6787L32.1432 37.5504C32.9499 38.056 33.8924 38.3578 34.918 38.3729C36.4033 38.3956 37.7604 37.8069 38.7483 36.8485L37.2025 35.2636ZM35.0763 27.6338C32.1206 27.5885 29.6777 29.9582 29.6324 32.9166C29.6173 34.026 29.934 35.0674 30.4995 35.9278L40.211 31.7694C39.6682 29.4375 37.5872 27.6791 35.0764 27.6338H35.0763ZM31.8567 33.3391C31.8417 33.2184 31.8341 33.0901 31.8341 32.9618C31.8643 31.2185 33.2969 29.8223 35.0386 29.8525C35.9887 29.8676 36.8331 30.2978 37.3986 30.977L31.8567 33.3391ZM43.2648 25.2188V35.5805L45.0594 36.3277L44.2073 38.3728L42.4278 37.6333C42.0283 37.4597 41.7568 37.1955 41.5532 36.8937C41.3571 36.5918 41.2063 36.1691 41.2063 35.6107V25.2188H43.2648ZM49.7417 30.011C50.0585 29.9053 50.3902 29.8525 50.7446 29.8525C52.2752 29.8525 53.542 30.9392 53.836 32.3807L55.9999 31.9354C55.5023 29.4827 53.3384 27.6413 50.7446 27.6413C50.1489 27.6413 49.5759 27.7394 49.0481 27.913L49.7417 30.011ZM47.1856 37.022L48.6483 35.3692C47.9924 34.7881 47.5852 33.9429 47.5852 32.9995C47.5852 32.0562 47.9999 31.2109 48.6483 30.6374L47.1856 28.9846C46.0773 29.9657 45.376 31.4071 45.376 33.0071C45.376 34.607 46.0773 36.0409 47.1856 37.022ZM53.836 33.6409C53.542 35.0824 52.2676 36.1691 50.7446 36.1691C50.3978 36.1691 50.0585 36.1087 49.7417 36.0031L49.0406 38.1012C49.5759 38.2822 50.1489 38.3804 50.7446 38.3804C53.3384 38.3804 55.5024 36.539 55.9999 34.0863L53.836 33.6409Z" fill="black"/>
</svg>
