<svg width="64" height="64" viewBox="0 0 64 64" fill="none" xmlns="http://www.w3.org/2000/svg">
<path d="M36.4434 23.0803H26.3782V39.8485H36.4434V23.0803Z" fill="#FF5F00"/>
<path d="M27.0175 31.4703C27.0161 29.8556 27.4109 28.2619 28.1721 26.8096C28.9333 25.3573 30.0409 24.0845 31.411 23.0876C29.714 21.8513 27.6761 21.0826 25.53 20.8692C23.384 20.6558 21.2165 21.0064 19.2753 21.8809C17.334 22.7554 15.6974 24.1185 14.5523 25.8145C13.4073 27.5105 12.8 29.471 12.8 31.4717C12.8 33.4725 13.4073 35.4329 14.5523 37.1289C15.6974 38.8249 17.334 40.1881 19.2753 41.0626C21.2165 41.9371 23.384 42.2877 25.53 42.0743C27.6761 41.8609 29.714 41.0921 31.411 39.8558C30.0405 38.8586 28.9326 37.5854 28.1714 36.1326C27.4102 34.6797 27.0156 33.0854 27.0175 31.4703Z" fill="#EB001B"/>
<path d="M48.9337 38.075V37.7314H49.0839V37.6603H48.7036V37.7314H48.8538V38.075H48.9337ZM49.6718 38.075V37.6603H49.5568L49.4226 37.9565L49.2884 37.6603H49.1733V38.075H49.2532V37.761L49.3778 38.0306H49.4641L49.5887 37.761V38.075H49.6718Z" fill="#F79E1B"/>
<path d="M50.0236 31.4661C50.0235 33.467 49.4161 35.4276 48.2709 37.1236C47.1256 38.8197 45.4887 40.1828 43.5472 41.0572C41.6057 41.9316 39.438 42.282 37.2919 42.0682C35.1457 41.8545 33.1078 41.0854 31.4109 39.8487C32.7805 38.8509 33.8877 37.5778 34.6491 36.1255C35.4105 34.6731 35.8061 33.0794 35.8061 31.4646C35.8061 29.8498 35.4105 28.2562 34.6491 26.8038C33.8877 25.3514 32.7805 24.0783 31.4109 23.0805C33.1078 21.8439 35.1457 21.0747 37.2919 20.861C39.438 20.6473 41.6057 20.9977 43.5472 21.8721C45.4887 22.7464 47.1256 24.1096 48.2709 25.8056C49.4161 27.5017 50.0235 29.4622 50.0236 31.4631V31.4661Z" fill="#F79E1B"/>
</svg>
