<svg width="64" height="64" viewBox="0 0 64 64" fill="none" xmlns="http://www.w3.org/2000/svg">
<path d="M10.9943 27.0129L10.0135 24.6179L9.03773 27.0129H10.9943ZM32.5973 26.0587C32.377 26.1649 32.1317 26.2081 31.8885 26.1837H30.1478V24.8492H31.9122C32.1439 24.8312 32.3765 24.8685 32.591 24.9581C32.6879 25.007 32.7682 25.0835 32.8218 25.1781C32.8753 25.2727 32.8996 25.3811 32.8917 25.4896C32.8998 25.6023 32.8767 25.715 32.825 25.8155C32.7733 25.9159 32.6949 26 32.5985 26.0587H32.5973ZM45.014 27.0129L44.022 24.6179L43.0363 27.0129H45.014ZM21.8688 29.6056H20.4001V24.9005L18.3225 29.6056H17.0648L14.9822 24.8955V29.6056H12.0686L11.5183 28.2648H8.53361L7.9771 29.6056H6.41237L8.97783 23.6023H11.1066L13.5435 29.2904V23.6023H15.8819L17.7535 27.6783L19.4767 23.6023H21.8625V29.6056H21.8688ZM27.7234 29.6056H22.9369V23.6023H27.7234V24.853H24.3706V25.9361H27.6435V27.168H24.3706V28.3674H27.7246L27.7234 29.6056ZM34.4714 25.2157C34.4818 25.553 34.3912 25.8858 34.2113 26.1711C34.0314 26.4564 33.7704 26.6812 33.462 26.8166C33.7382 26.9175 33.9828 27.0902 34.1707 27.3168C34.3704 27.6472 34.4538 28.0352 34.4078 28.4187V29.5993H32.9629V28.8414C33.0222 28.4368 32.9425 28.024 32.737 27.6707C32.5884 27.561 32.4197 27.4817 32.2404 27.4375C32.0612 27.3933 31.875 27.385 31.6926 27.4131H30.1541V29.5981H28.7216V23.5948H32.017C32.6104 23.5352 33.2089 23.6344 33.7515 23.8824C33.9862 24.0119 34.1789 24.2063 34.3066 24.4425C34.4342 24.6786 34.4915 24.9466 34.4714 25.2144V25.2157ZM36.7649 29.6056H35.3025V23.6023H36.7649V29.6056ZM53.7248 29.6056H51.6947L48.9782 25.0956V29.6056H46.0609L45.5031 28.2648H42.5272L41.9856 29.6056H40.3086C39.9131 29.6593 39.5106 29.6187 39.1336 29.4873C38.7567 29.3559 38.4159 29.1372 38.139 28.8491C37.8622 28.561 37.6569 28.2115 37.54 27.829C37.4231 27.4466 37.3978 27.0418 37.4661 26.6477C37.4328 26.2244 37.4839 25.7987 37.6165 25.3954C37.7491 24.9921 37.9606 24.6194 38.2385 24.2989C38.5352 24.0409 38.881 23.8458 39.255 23.7254C39.6291 23.605 40.0235 23.5619 40.4147 23.5986H41.8022V24.8855H40.4446C40.2462 24.8614 40.0449 24.8808 39.8546 24.9423C39.6644 25.0039 39.4897 25.1061 39.3428 25.2419C39.0424 25.6289 38.8957 26.1137 38.931 26.6027C38.8876 27.1053 39.0277 27.6066 39.3253 28.0135C39.6047 28.2439 39.9631 28.3552 40.3236 28.3236H40.9674L42.9864 23.5986H45.1326L47.5583 29.2817V23.5986H49.7394L52.2574 27.7833V23.5986H53.7248V29.6018V29.6056ZM6.3999 30.7862H8.84805L9.39958 29.4517H10.6349L11.1852 30.7862H16.0016V29.7657L16.4321 30.79H18.9277L19.3582 29.7507V30.7862H31.3283V28.5963H31.5603C31.7226 28.5963 31.77 28.6175 31.77 28.8852V30.7862H37.9615V30.2759C38.675 30.6305 39.4638 30.8057 40.2599 30.7862H42.8641L43.4218 29.4517H44.6572L45.2024 30.7862H50.2211V29.518L50.9809 30.7862H55.0026V22.4066H51.0221V23.3959L50.4644 22.4066H46.3803V23.3959L45.8688 22.4066H40.3523C39.5271 22.3673 38.7053 22.5354 37.9615 22.8957V22.4066H34.1545V22.8957C33.6928 22.537 33.1148 22.3628 32.5324 22.4066H18.6258L17.6924 24.5703L16.7341 22.4066H12.3531V23.3959L11.8715 22.4066H8.13557L6.3999 26.3913V30.7862Z" fill="#3285D2"/>
<path d="M57.3744 35.2161H54.7628C54.5628 35.1929 54.3606 35.2308 54.1826 35.3249C54.1118 35.3712 54.0549 35.4359 54.018 35.5122C53.9811 35.5884 53.9655 35.6732 53.9729 35.7576C53.9693 35.8562 53.9979 35.9534 54.0545 36.0342C54.111 36.115 54.1923 36.1751 54.2861 36.2053C54.4648 36.2592 54.6513 36.2821 54.8376 36.2729L55.6138 36.2941C56.1966 36.239 56.778 36.4125 57.2359 36.7781C57.2867 36.8217 57.3315 36.8718 57.3694 36.927L57.3744 35.2161ZM57.3694 39.1782C57.1326 39.4557 56.8316 39.6708 56.4927 39.8049C56.1539 39.939 55.7874 39.9879 55.4254 39.9474H52.6578V38.6592H55.4129C55.6181 38.6853 55.8256 38.6321 55.9931 38.5103C56.047 38.4605 56.09 38.4 56.1192 38.3326C56.1484 38.2652 56.1633 38.1924 56.1628 38.1189C56.166 38.0436 56.1518 37.9686 56.1216 37.8997C56.0913 37.8307 56.0456 37.7697 55.9881 37.7212C55.8437 37.6168 55.6661 37.5692 55.489 37.5873C54.1439 37.5423 52.4656 37.6299 52.4656 35.7276C52.4656 34.8521 53.0184 33.9379 54.522 33.9379H57.3757V32.7422H54.7241C54.0897 32.7109 53.4617 32.8826 52.931 33.2325V32.7422H49.0092C48.3998 32.708 47.7967 32.8807 47.2972 33.2325V32.7422H40.2959V33.2325C39.7084 32.8964 39.0406 32.7269 38.3643 32.7422H33.7475V33.2325C33.1456 32.8533 32.4368 32.6812 31.7286 32.7422H26.5577L25.3748 34.0254L24.2668 32.7422H16.543V41.1217H24.1208L25.3399 39.8185L26.4891 41.1217H31.1596V39.1594H31.6188C32.2975 39.202 32.9776 39.1014 33.6152 38.8643V41.128H37.4684V38.9418H37.6543C37.8914 38.9418 37.9151 38.9518 37.9151 39.1919V41.1305H49.6194C50.3092 41.1582 50.9906 40.9707 51.5697 40.594V41.1305H55.2694C55.9895 41.1557 56.7064 41.0239 57.3707 40.744V39.1819L57.3694 39.1782ZM51.6545 36.7769C51.8099 36.9479 51.9282 37.1493 52.0018 37.3685C52.0755 37.5876 52.103 37.8197 52.0825 38.0501C52.0825 39.3433 51.2765 39.9461 49.8365 39.9461H47.0465V38.6579H49.8253C50.032 38.6826 50.2405 38.6296 50.4105 38.5091C50.4642 38.4591 50.507 38.3985 50.5362 38.3311C50.5654 38.2637 50.5804 38.1911 50.5802 38.1176C50.5817 38.0426 50.5669 37.9681 50.5367 37.8994C50.5065 37.8307 50.4618 37.7694 50.4055 37.7199C50.2572 37.6147 50.0758 37.5671 49.8951 37.5861C48.555 37.5411 46.8768 37.6286 46.8768 35.7263C46.8768 34.8508 47.4233 33.9366 48.9256 33.9366H51.7955V35.2161H49.1677C48.9698 35.1923 48.7693 35.2303 48.5937 35.3249C48.5196 35.3763 48.4608 35.447 48.4236 35.5292C48.3863 35.6115 48.372 35.7023 48.3821 35.7921C48.3922 35.8819 48.4264 35.9672 48.481 36.0391C48.5356 36.111 48.6086 36.1667 48.6923 36.2003C48.873 36.2547 49.0616 36.2775 49.25 36.2679L50.0212 36.2891C50.6096 36.2361 51.1959 36.4111 51.6595 36.7781L51.6545 36.7769ZM38.7262 36.4017C38.5056 36.5056 38.2614 36.5488 38.0187 36.5268H36.278V35.1773H38.0499C38.2833 35.1561 38.5183 35.1935 38.7337 35.2861C38.8295 35.3382 38.9085 35.4169 38.9611 35.5126C39.0138 35.6084 39.0379 35.7173 39.0306 35.8264C39.0365 35.941 39.0119 36.0552 38.9592 36.1572C38.9066 36.2591 38.8279 36.3452 38.7312 36.4067L38.7262 36.4017ZM39.5909 37.1521C39.8669 37.2495 40.1099 37.4229 40.2922 37.6524C40.4891 37.982 40.5724 38.3674 40.5292 38.7492V39.9399H39.0905V39.1895C39.0905 38.828 39.1255 38.2927 38.8584 38.0138C38.7099 37.901 38.5402 37.8193 38.3595 37.7735C38.1788 37.7278 37.9907 37.7189 37.8065 37.7474H36.2755V39.9424H34.8356V33.9391H38.1435C38.7329 33.8881 39.3257 33.9857 39.8679 34.223C40.1056 34.351 40.3015 34.545 40.432 34.7816C40.5626 35.0183 40.6223 35.2876 40.6041 35.5575C40.6149 35.8941 40.5247 36.2262 40.3452 36.511C40.1657 36.7957 39.9051 37.0199 39.5971 37.1546L39.5909 37.1521ZM41.4002 33.9353H46.1817V35.1785H42.8264V36.2716H46.0994V37.4973H42.8264V38.6929H46.1817V39.9436H41.4064L41.4002 33.9353ZM31.7336 36.7081H29.8818V35.1773H31.7535C32.2714 35.1773 32.627 35.3886 32.627 35.9139C32.627 36.4392 32.2901 36.7106 31.7398 36.7106L31.7336 36.7081ZM28.4544 39.3983L26.2545 36.9507L28.4544 34.5807V39.3983ZM22.7732 38.6929H19.2582V37.4973H22.4038V36.2716H19.2582V35.1785H22.8505L24.4178 36.9295L22.7732 38.6929ZM34.1643 35.9152C34.1643 37.5848 32.9165 37.9288 31.6687 37.9288H29.8806V39.9449H27.0955L25.3312 37.955L23.4981 39.9449H17.8357V33.9416H23.598L25.3611 35.9114L27.1841 33.9416H31.7623C32.8928 33.9378 34.1705 34.253 34.1705 35.9177L34.1643 35.9152Z" fill="#3285D2"/>
</svg>
