<svg width="64" height="64" viewBox="0 0 64 64" fill="none" xmlns="http://www.w3.org/2000/svg">
<g clip-path="url(#clip0_138_130)">
<path d="M27.0753 24.3158L24.486 39.7623H28.6257L31.2171 24.3158H27.0753Z" fill="#1A1F71"/>
<path d="M39.8774 24C41.4831 24 42.769 24.3358 43.5894 24.6488L43.0281 27.9965L42.657 27.8182C41.8926 27.5053 40.9113 27.2051 39.5571 27.2264C37.9354 27.2264 37.185 27.913 37.185 28.5551C37.1756 29.2786 38.0622 29.7554 39.5098 30.47C41.8994 31.5726 43.0028 32.9096 42.9873 34.6668C42.9552 37.8733 40.1289 39.9444 35.7751 39.9444C33.9176 39.925 32.1288 39.5516 31.1614 39.1202L31.7426 35.6625L32.2764 35.9079C33.6367 36.4844 34.5174 36.7185 36.175 36.7185C37.3655 36.7185 38.6426 36.2457 38.653 35.2102C38.6607 34.5343 38.1188 34.0515 36.5066 33.2942C34.9356 32.5554 32.8544 31.3171 32.8775 29.0976C32.9021 26.095 35.7848 24 39.8774 24Z" fill="#1A1F71"/>
<path fill-rule="evenodd" clip-rule="evenodd" d="M51.0472 24.3155H54.2476L57.5998 39.7521H53.7566C53.7566 39.7521 53.3766 37.9783 53.2527 37.4375C52.9326 37.4375 51.5957 37.4356 50.3388 37.4339C49.2238 37.4323 48.1718 37.4309 47.9484 37.4309C47.7875 37.8488 47.0766 39.7521 47.0766 39.7521H42.7274L48.8785 25.5965C49.3138 24.5906 50.0559 24.3155 51.0472 24.3155ZM49.1699 34.2897H52.6079C52.4421 33.5166 51.649 29.8295 51.649 29.8295L51.3691 28.4977C51.2591 28.803 51.106 29.2068 50.9892 29.5148C50.8842 29.7919 50.8085 29.9914 50.82 29.972C50.82 29.972 49.5127 33.3994 49.1699 34.2897Z" fill="#1A1F71"/>
<path d="M16.9151 34.8494L20.9699 24.3155L25.3574 24.3154L18.8369 39.7327L14.4548 39.7377L10.7797 26.3479C9.49952 25.6226 8.03696 25.04 6.3999 24.6371L6.45284 24.3157H13.1315C14.031 24.3498 14.7583 24.6422 15.009 25.6203L16.4177 32.5063C16.4407 32.5739 16.4625 32.6414 16.4831 32.7088L16.9151 34.8494Z" fill="#1A1F71"/>
</g>
<defs>
<clipPath id="clip0_138_130">
<rect width="51.2" height="16" fill="white" transform="translate(6.3999 24)"/>
</clipPath>
</defs>
</svg>
