<svg width="64" height="64" viewBox="0 0 64 64" fill="none" xmlns="http://www.w3.org/2000/svg">
<path d="M48 32.0231C48 24.4394 41.6758 19.1977 34.7464 19.2H28.7834C21.7714 19.1975 16 24.441 16 32.0231C16 38.9596 21.7716 44.6586 28.7834 44.625H34.7464C41.6752 44.6583 48 38.9577 48 32.0231Z" fill="#0068AA"/>
<path d="M28.821 20.274C22.4138 20.276 17.222 25.4847 17.2197 31.9132C17.2213 38.3406 22.4133 43.5486 28.821 43.5509C35.2297 43.549 40.423 38.3407 40.4238 31.9132C40.423 25.4845 35.2298 20.2763 28.821 20.274Z" fill="white"/>
<path d="M21.4882 31.0889C21.4943 27.9475 23.4504 25.2688 26.2088 24.2043V37.9718C23.4504 36.908 21.4942 34.2306 21.4882 31.0889V31.0889ZM31.4722 37.9753V24.2047C34.2317 25.2667 36.191 27.9469 36.1959 31.0897C36.1909 34.2335 34.2317 36.9117 31.4722 37.9757V37.9753Z" fill="#0068AA"/>
</svg>
