<svg width="54" height="16" viewBox="0 0 54 16" fill="none" xmlns="http://www.w3.org/2000/svg">
<path fill-rule="evenodd" clip-rule="evenodd" d="M48.4389 10.0596L50.7908 4.02866H52.9452L47.99 16H45.8356L47.4156 12.4141L43.9327 4.02866H46.087L48.4389 10.0596ZM24.299 5.97559V2.40887V0.305231H21.1478C21.1478 0.305231 21.1457 3.09855 21.1478 5.49992C21.1483 6.0339 21.1497 6.54869 21.151 7.00936V7.0099C21.1536 7.94359 21.1556 8.65486 21.1478 8.85271C21.0921 10.2516 20.7125 11.1663 20.0046 11.9144C17.6591 11.9123 16.1407 10.2999 16.056 7.73295C16.0365 7.14366 16.0282 5.68115 16.0282 3.98705V0.302193L12.8794 0.305231V5.28657L12.8792 5.70812C12.8782 7.0352 12.8773 8.18079 12.9714 8.99353C13.262 11.5017 14.7815 13.1755 17.0729 13.1755C18.2494 13.1755 19.2501 12.7123 20.005 11.9187C20.0581 11.9208 20.1114 11.9222 20.1651 11.9222C21.7002 11.9222 23.1399 11.0353 23.8426 9.65857C24.1497 9.05695 24.2634 8.41023 24.299 7.75185C24.3202 7.35718 24.3131 6.95833 24.306 6.56257V6.56252V6.56246V6.5624C24.3025 6.36574 24.299 6.16984 24.299 5.97559ZM7.68472 -9.53674e-06C6.50811 -9.53674e-06 5.50739 0.463341 4.75255 1.25679C4.6994 1.25481 4.64608 1.25342 4.59252 1.25342C3.05738 1.25342 1.61772 2.14027 0.914968 3.51701C0.607712 4.11854 0.494093 4.76542 0.458602 5.42372C0.43731 5.81839 0.444463 6.21724 0.45156 6.613C0.455088 6.80972 0.458602 7.00568 0.458602 7.19998V10.7667V12.8703H3.60987C3.60987 12.8703 3.61193 10.077 3.60987 7.67565C3.60936 7.14522 3.60791 6.63375 3.60661 6.17545C3.60395 5.23695 3.60192 4.52144 3.60987 4.32278C3.66549 2.92394 4.04504 2.00915 4.75305 1.26106C7.09847 1.26319 8.61684 2.87555 8.70162 5.44254C8.72109 6.03191 8.72725 9.18556 8.72725 9.18556V12.8703H11.8782V7.88892L11.8784 7.46735V7.4673C11.8794 6.14025 11.8803 4.99469 11.7862 4.18205C11.4956 1.67388 9.97608 -9.53674e-06 7.68472 -9.53674e-06ZM26.918 0.177724H31.7296C34.0456 0.177724 35.7511 1.8259 35.7511 4.05342C35.7511 6.31734 34.0456 7.96544 31.7296 7.96544H29.0186V12.8553H26.918V0.177724ZM29.0186 5.93705H31.7296C32.8247 5.93705 33.6326 5.12208 33.6326 4.05342C33.6326 3.00308 32.8247 2.20619 31.7296 2.20619H29.0186V5.93705ZM39.7914 3.81795C37.9063 3.81795 36.3264 5.21251 36.1828 6.98737H37.9781C38.032 6.08187 38.8218 5.46612 39.7914 5.46612C40.9224 5.46612 41.6585 6.1724 41.6585 7.24098V7.40397H40.3659C37.7447 7.40397 36.111 8.563 36.111 10.4284C36.111 11.9136 37.2779 13.0364 38.9834 13.0364C40.1505 13.0364 41.0481 12.5836 41.6585 11.7505V12.8553H43.5436V7.36766C43.5436 5.24874 42.2331 3.81795 39.7914 3.81795ZM41.6585 9.28744C41.6585 10.3922 40.707 11.4427 39.3246 11.4427C38.4449 11.4427 37.8703 10.9536 37.8703 10.2654C37.8703 9.34174 38.75 8.90715 40.3121 8.90715H41.6585V9.28744Z" fill="#490C74"/>
</svg>
