<svg width="45" height="16" viewBox="0 0 45 16" fill="none" xmlns="http://www.w3.org/2000/svg">
<path d="M11.6989 11.9749C11.1104 11.9749 10.5569 11.7457 10.1408 11.3298L7.8909 9.07996C7.73301 8.92157 7.45765 8.92206 7.29975 9.07996L5.04168 11.338C4.6255 11.7539 4.07202 11.9831 3.48348 11.9831H3.04013L5.88957 14.8326C6.7795 15.7225 8.22235 15.7225 9.11229 14.8326L11.97 11.9749H11.6989Z" fill="#32BCAD"/>
<path d="M3.48307 4.01682C4.07161 4.01682 4.62509 4.24604 5.0412 4.66201L7.29928 6.92044C7.4619 7.08306 7.72745 7.08376 7.8905 6.92022L10.1403 4.67019C10.5565 4.25422 11.11 4.02507 11.6985 4.02507H11.9695L9.11189 1.16745C8.22195 0.277513 6.7791 0.277513 5.88916 1.16745L3.03979 4.01682H3.48307Z" fill="#32BCAD"/>
<path d="M14.3327 6.38883L12.6058 4.66194C12.5677 4.67718 12.5266 4.68671 12.4831 4.68671H11.6981C11.2921 4.68671 10.8948 4.8513 10.608 5.13831L8.35807 7.3882C8.14761 7.59872 7.87098 7.70413 7.59456 7.70413C7.31793 7.70413 7.04151 7.59872 6.83098 7.38841L4.57269 5.13012C4.28583 4.84312 3.88856 4.67852 3.4826 4.67852H2.51717C2.47604 4.67852 2.43752 4.66879 2.40119 4.6551L0.667453 6.38883C-0.222484 7.2787 -0.222484 8.72155 0.667453 9.61156L2.40112 11.3452C2.43745 11.3315 2.47604 11.3218 2.51717 11.3218H3.4826C3.88856 11.3218 4.28583 11.1572 4.57269 10.8702L6.83077 8.61213C7.23891 8.20434 7.95035 8.20413 8.35807 8.61234L10.608 10.8619C10.8948 11.149 11.2921 11.3136 11.6981 11.3136H12.4831C12.5267 11.3136 12.5677 11.3231 12.6058 11.3383L14.3327 9.61156C15.2226 8.72155 15.2226 7.2787 14.3327 6.38883Z" fill="#32BCAD"/>
<path d="M21.0481 13.612C20.6108 13.612 20.3921 13.3827 20.3921 12.924V2.892C20.3921 2.444 20.6161 2.22 21.0641 2.22H24.8561C26.0721 2.22 27.0001 2.51333 27.6401 3.1C28.2908 3.68667 28.6161 4.524 28.6161 5.612C28.6161 6.68933 28.2908 7.52667 27.6401 8.124C27.0001 8.71067 26.0721 9.004 24.8561 9.004H21.7041V12.924C21.7041 13.3827 21.4855 13.612 21.0481 13.612ZM21.7041 7.9H24.6961C26.4455 7.9 27.3201 7.13733 27.3201 5.612C27.3201 4.076 26.4455 3.308 24.6961 3.308H21.7041V7.9ZM31.1731 13.612C30.7358 13.612 30.5171 13.3827 30.5171 12.924V2.796C30.5171 2.33733 30.7358 2.108 31.1731 2.108C31.6105 2.108 31.8291 2.33733 31.8291 2.796V12.924C31.8291 13.3827 31.6105 13.612 31.1731 13.612ZM34.4825 13.612C34.2158 13.612 34.0238 13.516 33.9065 13.324C33.7998 13.1213 33.8318 12.9133 34.0025 12.7L37.6825 7.74L34.2265 3.052C34.0452 2.81733 34.0078 2.604 34.1145 2.412C34.2318 2.20933 34.4132 2.108 34.6585 2.108C34.9252 2.108 35.1652 2.252 35.3785 2.54L38.4505 6.748L41.5065 2.54C41.7092 2.252 41.9438 2.108 42.2105 2.108C42.4665 2.108 42.6478 2.20933 42.7545 2.412C42.8718 2.604 42.8398 2.81733 42.6585 3.052L39.1865 7.74L42.8825 12.7C43.0425 12.9133 43.0692 13.1213 42.9625 13.324C42.8558 13.516 42.6692 13.612 42.4025 13.612C42.1358 13.612 41.8958 13.468 41.6825 13.18L38.4345 8.732L35.1865 13.18C34.9838 13.468 34.7492 13.612 34.4825 13.612Z" fill="#333333"/>
</svg>
